# xmcd CD database file
#
# Track frame offsets:
#	187
#	16030
#	31695
#	49100
#
# Disc length: 864 seconds
#
# Revision: 0
# Processed by: cddbd v1.5.1PL0 Copyright (c) Steve Scherf et al.
# Submitted via: CDex 1.51
#
DISCID=1f035e04
DTITLE=大槻ケンヂ - あのさぁ
DYEAR=1995
DGENRE=Vocal
TTITLE0=あのさぁ
TTITLE1=私はみまちゃん（バンド・バージョン）
TTITLE2=オンリー・ユー（アンプラグド・ライブ・バージョン）
TTITLE3=あのさぁ（オリジナル・カラオケ）
EXTD=YEAR: 1995
EXTT0=
EXTT1=
EXTT2=
EXTT3=
PLAYORDER=
